<svg xmlns="http://www.w3.org/2000/svg" class="{{ include.class }}" viewBox="0 0 1065.21 154.69"><path d="M118.92 73.12q-12.32-33.5-24.59-67c-.72-2-1.4-3.39-4.09-3.35C79.12 3 68 2.8 56.86 2.92c-1 0-2.73.9-3 1.77-4.94 13.56-10.18 27-14.35 40.84-3.75 12.39 1.35 22.32 12.17 26.66 2.43 1 3.52.54 4.4-2 3.39-9.62 7-19.18 10.47-28.76Q69.94 32.2 73.34 23l.89.05 20.11 57.2H52.65a48.59 48.59 0 0 0-8.19.53c-13.12 2.29-21 10.67-25.62 22.61-5.36 13.83-10.64 27.69-16 41.52C2 147 1 148.87 0 150.84v.75c8 .06 16 0 24 .24 3 .1 4.38-.87 5.33-3.73C34 134 38.86 120.06 43.5 106c.91-2.76 2-3.9 5.19-3.86q24.75.28 49.5 0c3.27 0 4.44 1.17 5.43 4.07 4.9 14.37 10.07 28.64 15.06 43 .68 2 1.65 2.67 3.75 2.62 5.75-.14 11.5-.05 17.25-.05h7.89c-.45-1.54-.64-2.39-.93-3.2q-13.86-37.75-27.72-75.46ZM668.73 2.76c-3.16-.07-4.25 1.08-5.1 3.92Q648.92 56 634 105.17c-1.6 5.28-3.24 10.55-4.86 15.83a36.59 36.59 0 0 1-3.38-8.35Q609.61 59.46 593.54 6.24c-.78-2.59-1.92-3.54-4.67-3.46-7 .2-14 .06-21 .06h-15.09v148.61h24.63V32.63a51.32 51.32 0 0 1 4 10Q597.84 95.29 614.25 148c.88 2.85 2 4 5.16 3.86 6.36-.28 12.75-.2 19.12 0 2.42.07 3.5-.74 4.21-3q13.78-44.57 27.73-89.08 4.26-13.62 8.54-27.25l1 .11v119h24.52V2.84h-3.9c-10.63 0-21.29.16-31.9-.08ZM834.42 81.07c-3.61-3.11-7.66-5.73-11.49-8.55 10.83-10 14.08-15.35 15.67-28.43 1.58-12.92-3.6-26.81-16.6-33.76-10.57-5.65-22-7.15-33.57-7.39-18.24-.37-36.5-.1-54.74-.09-1.32 0-2.64.13-4.33.23v30.68a37.64 37.64 0 0 0 .64 6.7c2.12 11.46 13.49 20.72 25.37 20.3V24c13.27 0 26-.34 38.68.15a18.77 18.77 0 0 1 14.16 7.46c5.83 7.57 6 16 2 24.26s-11.11 11.37-19.77 11.51c-11 .18-22 0-33 .05-17 0-28 11.13-28 28.2V151.75h4.92c18.87 0 37.75.24 56.61-.12a92.53 92.53 0 0 0 21-2.69c14.8-3.79 26.52-11.84 30.63-27.51a60.47 60.47 0 0 0 1.73-18.09c-.41-8.49-3.19-16.46-9.91-22.27ZM818 109.83c-.57 13.76-8.84 20-20.45 20.61-13.89.69-27.85.17-42 .17V86.5c16 .7 31.77.5 47.27 2.36 10.93 1.32 15.67 9.93 15.18 20.97ZM256.21 76.06c-11.51-6.78-24.17-9.54-36.95-12.2-7.78-1.62-15.61-3.13-23.21-5.35-5.67-1.66-10.4-5.4-12.21-11.23-2.94-9.5.15-17.88 11.48-22.73a43.37 43.37 0 0 1 23.73-2.79c12.78 1.81 22.21 7.56 26.45 20.35.28.86 1.41 2 2.16 2.06 7.59.15 15.19.09 22.74.09a4.83 4.83 0 0 0 .28-1.47C267 26.16 258.52 13 242.47 6.09c-19.62-8.42-39.54-7.85-59.17.1-10.3 4.19-18.84 10.86-23.43 21.44-8 18.37-.28 39.15 17.76 48.73 11 5.83 23 7.64 34.93 10.25 8.55 1.88 17.34 3.87 25.16 7.61 13.84 6.62 14.46 24.29 1.79 33-9.16 6.29-19.53 7.06-30.1 5.8-9.75-1.15-18.34-5.08-23.91-13.52-2.77-4.21-4.4-9.15-6.71-13.67-.58-1.14-1.74-2.78-2.68-2.81-7.59-.23-15.19-.13-22.62-.13-.27.59-.47.82-.45 1 .17 1.47.35 3 .61 4.41 3.37 18.62 13.29 32.38 30.7 40.09 15 6.65 30.81 7.77 46.78 4.55 13.16-2.65 25-7.93 34.11-18.52 13.63-15.86 12.41-45.74-9.03-58.36ZM384.53 73.45c-12.57-6.21-26.21-8.29-39.71-11-7.18-1.39-14.54-2.17-20.82-6.45-11.05-7.52-11.25-21.62-.19-29 6.85-4.57 14.65-6.15 22.78-5.75 14.71.72 26.83 5.53 32 20.94a3.31 3.31 0 0 0 2.24 2c7.47.15 14.95.09 22.47.09a6.23 6.23 0 0 0 .27-1.78c-3.57-16.45-12.14-29.22-27.7-36.3C364.48 1 352.38-.53 339.82.61c-11.88 1.07-23 4-32.93 10.74q-20 13.7-16.35 37.8c2.07 13.64 10.41 22.21 22.12 28.2 10.36 5.31 21.7 7 32.94 9.16 8.91 1.68 17.89 3.2 25.87 7.9 12.85 7.56 13.39 24.55 1 32.82-7.21 4.85-15.27 6.24-23.8 6.19-18.79-.11-31.29-9.12-36.61-27-.85-2.85-2-4-4.88-3.58a29.14 29.14 0 0 1-3.74 0h-17.8c.35 2.2.58 3.77.86 5.32 2.55 13.73 8.71 25.33 20 33.9 9.83 7.45 21.1 10.63 33.23 11.89 16.1 1.67 31.27-.93 45.42-8.73 13-7.16 20.9-18.17 21.87-33.11 1.21-17.66-6.38-30.69-22.49-38.66ZM960.82 129.94c-22.23.12-44.47.07-66.71.05-1.43 0-2.86-.15-4.63-.25V3h-24.93v148.48H965c0-6-.22-11.73.09-17.44.15-3.46-1.09-4.12-4.27-4.1ZM524.28 129.92c-23.5.15-47 .08-70.49.08h-4.51V87.85h74.13V66.92c-.95 0-1.67-.13-2.39-.13h-71.24a29.16 29.16 0 0 0-7.36 1.07c-12 3.22-19.15 13-19.19 26.21-.06 18.13 0 36.26 0 54.39 0 1 .14 1.94.23 3.07h104.87c0-6-.2-11.75.08-17.47.17-3.28-.8-4.16-4.13-4.14ZM1040 2.76c-3.08-.1-4.66 1.06-6.13 3.58-13.42 23.05-27 46-40.44 69-5.38 9.23-9.44 19-9.74 29.86-.39 14.36-.25 28.74-.32 43.12 0 1.19.13 2.38.2 3.61h26V97.77a9.47 9.47 0 0 1 1-4.59q18.52-31 37.24-61.82c5.58-9.26 11.19-18.5 17.27-28.55-8.85.03-16.96.19-25.08-.05ZM429 50.77a25.2 25.2 0 0 0 20 9.55c0-10.93.13-21.41-.08-31.88-.07-3.32.92-4.23 4.21-4.21 23.73.13 47.46.07 71.19.07h4c0-5.9-.17-11.49.07-17.07.13-3.3-.67-4.49-4.28-4.47-32.23.15-64.45.08-96.68.09-1.31 0-2.63.15-4 .22 0 11.38-.09 22.35 0 33.31A22.79 22.79 0 0 0 429 50.77ZM952.46 41.27c3.41 5.47 6.76 11.27 11.37 15.6 8.25 7.75 19 9.3 30.55 9.09-.6-1.34-.93-2.25-1.4-3.1-9.76-17.54-19.78-35-29.19-52.69-3-5.67-6.39-8.62-12.92-7.39-2.18.41-4.49.06-6.74.06h-14.47c.6 1.29.85 2 1.22 2.59 7.17 11.96 14.21 24.01 21.58 35.84Z"/></svg>
