<svg class="{{ include.class }}" xmlns="http://www.w3.org/2000/svg" viewBox="0 0 75.67 19"><path d="M9.7 3.67A8.43 8.43 0 0 1 14.09 5h.07l1.74-3.14v-.07A10.69 10.69 0 0 0 9.82 0C4.06 0 0 3.83 0 9.51S4.06 19 9.82 19a10.69 10.69 0 0 0 6.06-1.78.11.11 0 0 0 0-.08L14.17 14h-.07a8.35 8.35 0 0 1-4.4 1.34A5.5 5.5 0 0 1 4 10.08v-.57a5.5 5.5 0 0 1 5.15-5.83 5 5 0 0 1 .55-.01ZM27.63 0C22 0 17.85 4 17.85 9.51S22 19 27.63 19s9.78-4 9.78-9.5S33.23 0 27.63 0Zm0 15.3a5.46 5.46 0 0 1-5.76-5.14v-.65A5.48 5.48 0 0 1 27 3.71h.64a5.47 5.47 0 0 1 5.76 5.16v.64a5.46 5.46 0 0 1-5.11 5.79ZM67.13 0C61.41 0 58 4.14 58 9.55c0 5.64 3.64 9.45 9.32 9.45a9.48 9.48 0 0 0 8.05-4.21v-.07l-2.58-2.44a.06.06 0 0 0-.08 0 6.68 6.68 0 0 1-5.45 3.08 5.21 5.21 0 0 1-5.4-5v-.18a.06.06 0 0 1 0-.06h13.81v-.61c0-5.76-3.09-9.51-8.54-9.51Zm4.38 7.38h-9.43v-.07a4.52 4.52 0 0 1 4.82-3.83c2.68 0 4.49 1.4 4.67 3.84a.06.06 0 0 1-.06.06ZM56.59.58h-4.25a59.11 59.11 0 0 1-4.7 13.3A59.51 59.51 0 0 1 42.92.6h-4.3v.05A51.48 51.48 0 0 0 46 18.41h3.13A51.61 51.61 0 0 0 56.65.65V.58Z" data-name="Layer 1"/></svg>
