<svg class="{{ include.class }}" xmlns="http://www.w3.org/2000/svg" viewBox="0 0 376.81 88"><path d="M228.23 13.54a33.25 33.25 0 0 1 3.35 14.63V59a34.74 34.74 0 0 1-12.68 27.05h72.62V55.21s-11.66 25.52-35.17 25.08h-8.17V46.46A34.14 34.14 0 0 1 263.32 50a35.45 35.45 0 0 1 12.13 9.92l.36.44V26.79l-.36.44a35.45 35.45 0 0 1-12.13 9.92 34.14 34.14 0 0 1-15.14 3.54V7.82h25.53l17.81 25.09V2.05H218.9a32 32 0 0 1 9.33 11.49Z"/><path d="M188.64 71.3c-17.53 0-32.5-12.74-32.5-34 0-10.42 4.05-21.42 12.74-28.12A15.91 15.91 0 0 1 190 10.87l14.72 15L216 10.2A52.4 52.4 0 0 0 184.83 0c-22.48 0-42.63 16.74-42.63 44.66S162 88 182.19 88c15.67 0 30.28-9.73 36.86-30-9.44 9.1-20.4 13.3-30.41 13.3ZM359 7.78l17.79 25.09V2H300v30.87l17.66-25.09h12.23V58a34.11 34.11 0 0 1-4 16.1 32.36 32.36 0 0 1-11 12h46.65a32.42 32.42 0 0 1-11-12.06A34.2 34.2 0 0 1 346.73 58V7.78ZM44.32 37.15a33.81 33.81 0 0 1-15.14 3.54V7.82h24.36l17.9 25.09V2.05H0A31.85 31.85 0 0 1 9.25 13.4a33.33 33.33 0 0 1 3.32 14.51v32.18A33 33 0 0 1 9.24 74.6 31.94 31.94 0 0 1 0 86h45.19a32.76 32.76 0 0 1-11.71-12.28 34.46 34.46 0 0 1-4.3-16.67V46.42A33.81 33.81 0 0 1 44.32 50a35.33 35.33 0 0 1 12.15 9.92l.35.46V26.79l-.35.44a35.33 35.33 0 0 1-12.15 9.92ZM90.81 2.08l.25.63a26.33 26.33 0 0 1-.12 19.59L75 61a75.11 75.11 0 0 1-15.64 23.93l-1.1 1.12h32.17l-.49-.36a22.72 22.72 0 0 1-8.42-11.93 23.71 23.71 0 0 1 .4-14.8h33.19l.68 1.72a22.58 22.58 0 0 1 1 13.78 22 22 0 0 1-7.16 11.67h34.62l-33.76-84Zm-6.53 51.2L98.67 17.7l14.27 35.58Z"/></svg>
