<svg class="{{ include.class }}" xmlns="http://www.w3.org/2000/svg" viewBox="0 0 49.52 8.92"><path d="M4.1,8.72h-1v-4H1v4H0V.2H1V4H3.14V.2h1Z"/><path d="M6.7,5.05,4.91.2H6L7,3.33a4.3,4.3,0,0,1,.18.78h0a4.3,4.3,0,0,1,.18-.78L8.39.2h1L7.65,5.05V8.72h-1Z"/><path d="M14,2.23V3a1.91,1.91,0,0,1-2,2.18h-.84V8.72h-1V.2H12A1.81,1.81,0,0,1,14,2.23Zm-1,.1c0-1-.34-1.36-1.09-1.36h-.75V4.38H12c.72,0,1.08-.45,1.08-1.41Z"/><path d="M18.35,7.88v.84H15V.2h3.3V1H15.92V3.91h2.14v.84H15.92V7.88Z"/><path d="M21.11,5.07h-.82V8.72h-1V.2h1.8c1.4,0,2,.75,2,2.11v.53a2,2,0,0,1-1.08,2.07l1.32,3.81h-1Zm-.82-.74h.79c.76,0,1.07-.49,1.07-1.49V2.4c0-1-.31-1.43-1.08-1.43h-.78Z"/><path d="M28.22,6.16v.27c0,1.52-.67,2.29-2.09,2.29H24.36V.2h1.75a1.77,1.77,0,0,1,2,2v.29a1.59,1.59,0,0,1-1.05,1.72C27.67,4.4,28.22,4.86,28.22,6.16ZM25.32,1v3h.74c.77,0,1.06-.43,1.06-1.44V2.23c0-.9-.33-1.26-1.07-1.26Zm1.92,5.19c0-1.09-.34-1.47-1.13-1.47h-.79V7.93h.89c.76,0,1-.52,1-1.47Z"/><path d="M29.38.2h.95V7.82h2.21v.9H29.38Z"/><path d="M33,6.45v-4C33,.86,33.78,0,35.19,0s2.2.86,2.2,2.47v4c0,1.61-.77,2.47-2.2,2.47S33,8.05,33,6.45Zm3.38.07V2.4c0-1-.43-1.57-1.2-1.57S34,1.4,34,2.4V6.52c0,1,.42,1.58,1.18,1.58S36.39,7.52,36.39,6.52Z"/><path d="M38.33,6.45v-4C38.33.86,39.09,0,40.51,0S42.7.86,42.7,2.47v4c0,1.61-.76,2.47-2.19,2.47S38.33,8.05,38.33,6.45Zm3.38.07V2.4c0-1-.43-1.57-1.2-1.57s-1.19.57-1.19,1.57V6.52c0,1,.42,1.58,1.19,1.58S41.71,7.52,41.71,6.52Z"/><path d="M43.92.2h1.51l1.09,6.19a10,10,0,0,1,.18,1.24h0a7.21,7.21,0,0,1,.17-1.24L48,.2h1.51V8.72h-.89V3.37c0-.54,0-1.77,0-2.31H48.6c-.05.49-.08.7-.21,1.53L47.25,8.72H46.19L45.05,2.59c-.12-.83-.2-1.47-.21-1.53h-.05c0,.54,0,1.77,0,2.31V8.72h-.89Z"/></svg>
