<svg class="{{ include.class }}" xmlns="http://www.w3.org/2000/svg" viewBox="0 0 522.91 91.25"><path class="cls-1" d="M0,0H18V91.25H0ZM80.89,43.9,52.06,0H36.29V91.25H53.78V32.71L78.4,70.33a3,3,0,0,0,2.49,1.34,2.9,2.9,0,0,0,1.41-.36,3,3,0,0,0,1.08-1l24.49-37.61V91.25h17.36V0H109.58ZM371.83,0l43.82,60.47V0h17.48V91.25H416L370.39,29.1V91.25h-17.5V0Zm72.66,14.9V0h78.42V14.9H492.06V91.25H474.7V14.9ZM334.94,0h-18V91.25h18ZM142.72,0h45.37c15.46,0,28,13.66,28,30.11s-12.53,29.47-28,29.47h-28V91.25H142.72Zm17.36,44.8h24.29c8.31,0,13.48-6.32,13.48-14.95S192.68,14.9,184.37,14.9H160.08Zm141.31-15c0-16.45-12.53-29.79-28-29.79H228V91.25H245.4V59.58h19.31c9.79,0,17,5.58,17,17.2,0,4.79,0,10,.46,14.47H299c-.46-4.21-.46-9.54-.46-16.15,0-8.75-4.38-15.41-10.16-20.18a30.28,30.28,0,0,0,13-25.13Zm-56,15.66V14.89l23.65-.05c8.51,0,14.72,6.47,14.72,15.3s-6.21,15.31-14.72,15.31Z"/></svg>
