<svg class="{{ include.class }}" viewBox="0 0 131 32" xmlns="http://www.w3.org/2000/svg">
<path d="M5.69412 25.3518V15.7272C5.69412 13.4605 7.19361 11.8215 9.32079 11.8215C11.3434 11.8215 12.7034 13.3559 12.7034 15.4831V25.3518H17.5854V14.4021C17.5854 10.3569 15.0049 7.49744 11.0295 7.49744C8.62336 7.49744 6.67053 8.50872 5.69412 10.2174V7.77641H0.812073V25.3518H5.69412Z"></path>
<path d="M32.8636 7.77641V17.401C32.8636 19.6328 31.3641 21.3067 29.2369 21.3067C27.2493 21.3067 25.8544 19.7723 25.8544 17.6451V7.77641H21.0072V18.7262C21.0072 22.7364 23.5877 25.6308 27.5282 25.6308C29.9344 25.6308 31.8872 24.5846 32.8636 22.9108V25.3518H37.7457V7.77641H32.8636Z"></path>
<path d="M46.1849 25.3518V15.3785C46.1849 13.1118 47.4752 11.6123 49.4977 11.6123C51.3808 11.6123 52.5664 13.1118 52.5664 15.3785V25.3518H57.4485V15.3785C57.4485 13.1118 58.7387 11.6123 60.7613 11.6123C62.6444 11.6123 63.8649 13.1118 63.8649 15.3785V25.3518H68.7121V13.8441C68.7121 10.3221 66.2362 7.49744 62.4003 7.49744C59.5757 7.49744 57.3787 8.99693 56.5418 10.7056C55.7049 8.61334 53.9264 7.49744 51.1716 7.49744C48.8003 7.49744 47.1264 8.64821 46.1849 10.2523V7.77641H41.3029V25.3518H46.1849Z"></path>
<path d="M84.0102 19.3887C83.6266 20.8882 82.3363 21.6554 80.3835 21.6554C77.9425 21.6554 76.3733 20.121 76.0245 17.6451H88.6481C88.683 17.2615 88.7179 16.7385 88.7179 16.0759C88.7179 12.0656 86.242 7.49744 80.0348 7.49744C74.0717 7.49744 71.3517 12.0656 71.3517 16.5292C71.3517 20.958 74.4204 25.6308 80.3835 25.6308C84.7076 25.6308 88.0553 23.1897 88.7527 19.3887H84.0102ZM80.0348 11.0544C82.3712 11.0544 83.7312 12.6236 83.8707 14.5764H76.0943C76.5127 12.1354 77.8379 11.0544 80.0348 11.0544Z"></path>
<path d="M102.661 7.77641H100.673C98.5457 7.77641 97.2206 8.50872 96.2791 10.7056V7.77641H91.397V25.3518H96.2791V16.8082C96.2791 13.8092 97.3601 11.8215 99.7662 11.8215H102.661V7.77641Z"></path>
<path d="M104.707 5.16103H110.043V0H104.707V5.16103ZM109.799 25.3518V7.77641H104.917V25.3518H109.799Z"></path>
<path d="M121.522 25.6308C126.09 25.6308 129.717 22.7015 130.24 18.7959H125.288C124.94 20.3651 123.51 21.4462 121.731 21.4462C119.081 21.4462 117.512 19.4236 117.512 16.5641C117.512 13.7046 119.046 11.6472 121.662 11.6472C123.44 11.6472 124.94 12.798 125.219 14.3672H130.101C129.787 10.2872 126.125 7.49744 121.522 7.49744C116.082 7.49744 112.455 11.438 112.455 16.5641C112.455 21.6903 116.082 25.6308 121.522 25.6308Z"></path>
</svg>
