<svg class="{{ include.class }}" viewBox="0 0 78 28" xmlns="http://www.w3.org/2000/svg"><path d="M32.3956 21.4159C29.6765 21.4159 28.1469 19.1638 28.1469 15.8103C28.1469 12.2867 29.5884 10.2048 32.0625 10.2048C33.0742 10.2048 33.8261 10.4452 34.3682 10.816C33.5804 11.1853 33.0352 11.9854 33.0352 12.9135C33.0352 14.1921 34.071 15.2296 35.3494 15.2296C36.6279 15.2296 37.6637 14.1929 37.6637 12.9135C37.6637 12.9018 37.6629 12.8893 37.6629 12.8776L37.6645 12.8784C37.6645 10.606 35.1287 8.81689 32.1382 8.81689C28.5494 8.81689 25.1299 11.6271 25.1299 15.7627C25.1299 19.8242 28.1547 22.8444 32.1787 22.8444C36.0062 22.8444 38.0521 20.3886 38.127 17.9125C38.127 17.8922 38.134 17.8376 38.134 17.8173H36.5842C36.3931 19.4979 34.9657 21.4159 32.3956 21.4159Z"/><path fill-rule="evenodd" clip-rule="evenodd" d="M5.07708 11.13C5.78376 9.99343 7.2993 8.95288 9.64476 8.95288C13.4855 8.95288 16.1905 11.9395 16.1913 15.9947C16.1913 20.8111 12.8334 23.0288 9.69234 23.0288C7.32036 23.0288 5.70888 21.8251 5.16522 20.7908V24.565C5.16522 25.3815 5.57316 25.871 6.30714 25.871H8.40066V27.3471H0.0390625V25.871H1.44618C2.16612 25.871 2.5608 25.3948 2.5608 24.5853V12.1299C2.5608 11.3134 2.20044 10.8716 1.50078 10.8716H0.0593425V9.41578H5.07708V11.13ZM5.22606 18.0352C5.68782 20.2459 7.2174 21.5862 9.1752 21.5862C11.5136 21.5862 13.1789 19.484 13.1797 16.2734C13.1797 12.5179 11.5207 10.4501 9.16194 10.4501C6.78918 10.4501 5.50452 12.0823 5.16522 13.5592C5.02872 14.2056 5.13714 17.6481 5.22606 18.0352Z"/><path d="M53.6797 19.8314V13.2188C53.6797 10.4094 52.0144 8.95361 49.1596 8.95361C47.0318 8.95361 45.0404 9.88566 44.0818 11.838V9.31347L39.0586 9.41573V10.8716H40.5336C41.2403 10.8716 41.5874 11.4297 41.5874 12.1096V19.8314C41.5874 20.6814 41.2067 21.1717 40.4314 21.1717H39.0648V22.6415H46.6238V21.1717H45.3048C44.5638 21.1717 44.1699 20.6822 44.1699 19.8517V16.4911C44.1699 12.4023 45.8969 10.6405 48.3172 10.6405C50.0168 10.6405 51.0768 11.7903 51.0768 13.4366V19.8454C51.0768 20.6682 50.6759 21.1717 49.9552 21.1717H48.5816V22.6415H56.0798V21.1717H54.8083C54.0814 21.1709 53.6797 20.6885 53.6797 19.8314Z"/><path d="M22.1582 20.103V9.34082L17.0391 9.41576V10.8716H18.514C19.1326 10.8716 19.5748 11.2595 19.5748 11.9668V20.1038C19.5748 20.9203 19.3986 21.1717 18.6778 21.1717H17.0391V22.6416H24.7002V21.1717H23.2455C22.5115 21.1709 22.1582 20.9125 22.1582 20.103Z"/><ellipse cx="20.6285" cy="4.45114" rx="2.6988" ry="2.7009"/><path d="M76.411 17.8173C76.2207 19.4979 74.7933 21.4159 72.2232 21.4159C69.5041 21.4159 67.9746 19.1638 67.9746 15.8103C67.9746 12.2867 69.416 10.2048 71.8902 10.2048C72.9018 10.2048 73.6537 10.4452 74.1958 10.816C73.408 11.1853 72.8628 11.9854 72.8628 12.9135C72.8628 14.1921 73.8987 15.2296 75.1771 15.2296C76.4555 15.2296 77.4913 14.1929 77.4913 12.9135C77.4913 12.9018 77.4906 12.8893 77.4906 12.8776L77.4921 12.8784C77.4921 10.606 74.9563 8.81689 71.9658 8.81689C68.377 8.81689 64.9575 11.6271 64.9575 15.7627C64.9575 19.8242 67.9824 22.8444 72.0064 22.8444C75.8338 22.8444 77.8798 20.3886 77.9547 17.9125C77.9547 17.8922 77.9617 17.8376 77.9617 17.8173H76.411Z"/><path d="M61.9858 20.103V9.34082L56.8667 9.41576V10.8716H58.3417C58.9602 10.8716 59.4025 11.2595 59.4025 11.9668V20.1038C59.4025 20.9203 59.2262 21.1717 58.5055 21.1717H56.8667V22.6416H64.5279V21.1717H63.0732C62.3392 21.1709 61.9858 20.9125 61.9858 20.103Z"/><ellipse rx="2.69918" ry="2.70066" transform="matrix(0.923772 -0.382944 0.382437 0.923982 60.4579 4.45025)"/></svg>
