<svg class="{{ include.class }}" xmlns="http://www.w3.org/2000/svg" viewBox="0 0 167.27 24.82"><path d="M0,13.86c.47,3.78,4.14,5.34,8.14,5.34,4.72,0,8-2.07,8-6.06,0-2.43-1.56-4.43-4.75-5.12L7,7.08c-1.41-.33-1.63-1-1.63-1.53,0-.83.54-1.78,2.47-1.78s3.27,1.06,3.45,2.51l4.57-.91C15.26,2.21,12.28,0,8,0,3.42,0,.58,2.5.58,6c0,2.61,1.85,4.46,5.12,5.15l3.71.76c1.56.33,2,1,2,1.63,0,1-1.06,1.82-2.84,1.82s-3.48-.62-3.74-2.47Z"/><path d="M36.9,9.26a9.28,9.28,0,1,0-18.56.36,9.21,9.21,0,0,0,9.3,9.58,9,9,0,0,0,8.79-5.59l-4.29-.91a4.61,4.61,0,0,1-4.5,2.4,4.69,4.69,0,0,1-4.54-4.21H36.9V9.26ZM27.71,4.17A4.22,4.22,0,0,1,32,7.51H23.25a4.55,4.55,0,0,1,4.46-3.34Z"/><path d="M58.78.54H54a.77.77,0,0,1-1.15.66A9.57,9.57,0,0,0,48,0c-4.61,0-8.9,3.92-8.9,9.62S43.38,19.2,48,19.2a9.33,9.33,0,0,0,6-2v7.58h4.79V.54ZM48.83,15c-2.91,0-5.09-2.07-5.09-5.41s2.18-5.44,5.09-5.44A5.27,5.27,0,0,1,54,9.61,5.24,5.24,0,0,1,48.83,15Z"/><path d="M81,.54h-4.8v8c0,4.43-1.78,6.24-4.51,6.24-2.21,0-3.66-1.7-3.66-4.24V.54H63.2v11c0,4.5,2.91,7.62,7.27,7.62A8.09,8.09,0,0,0,75,18a.79.79,0,0,1,1.2.67H81Z"/><path d="M103.17,9.26a9.28,9.28,0,1,0-18.56.36A9.2,9.2,0,0,0,93.9,19.2a9,9,0,0,0,8.79-5.59l-4.28-.91a4.63,4.63,0,0,1-4.51,2.4,4.7,4.7,0,0,1-4.54-4.21h13.8V9.26ZM94,4.17a4.23,4.23,0,0,1,4.29,3.34H89.51A4.55,4.55,0,0,1,94,4.17Z"/><path d="M117.31,0a8.17,8.17,0,0,0-4.51,1.21.78.78,0,0,1-1.2-.67h-4.79V18.65h4.79v-8c0-4.42,1.78-6.24,4.51-6.24,2.21,0,3.67,1.71,3.67,4.25v10h4.79v-11c0-4.5-2.9-7.62-7.26-7.62Z"/><path d="M137.44,14.81a4.84,4.84,0,0,1-5.05-5.19,4.87,4.87,0,0,1,5.05-5.23A4.33,4.33,0,0,1,141.91,8l4.61-1.3A9.32,9.32,0,0,0,137.44,0a9.45,9.45,0,0,0-9.7,9.62,9.42,9.42,0,0,0,9.7,9.58,9.09,9.09,0,0,0,9.08-6.79l-4.43-1.12a4.62,4.62,0,0,1-4.65,3.52Z"/><path d="M167.27,9.26a9.29,9.29,0,1,0-18.57.36A9.21,9.21,0,0,0,158,19.2a9,9,0,0,0,8.79-5.59l-4.29-.91a4.61,4.61,0,0,1-4.5,2.4,4.69,4.69,0,0,1-4.54-4.21h13.8V9.26Zm-9.19-5.09a4.22,4.22,0,0,1,4.28,3.34h-8.75a4.55,4.55,0,0,1,4.47-3.34Z"/></svg>
