<svg class="{{ include.class }}" xmlns="http://www.w3.org/2000/svg" viewBox="0 0 54 8.58"><path d="M6.92,5.09A3.19,3.19,0,0,1,3.47,8.56,3.2,3.2,0,0,1,0,5.09V0H1.62V5A1.8,1.8,0,0,0,3.47,7,1.79,1.79,0,0,0,5.3,5V0H6.92Z"/><path d="M9.77,8.4H8.29V0H9.77Z"/><path d="M13.1,4.09V6.42c0,.44.16.62.59.62h.25V8.41h-.65a1.48,1.48,0,0,1-1.66-1.65V4.09h-1V2.85h1V.64H13.1V2.85h1.14V4.09Z"/><path d="M18.48,4.27h-.17c-1.18,0-1.74.5-1.74,1.86V8.4H15.11V2.85h1.45V4h0a1.83,1.83,0,0,1,1.84-1.34h.06Z"/><path d="M18.91,5.62a2.67,2.67,0,0,1,2.66-2.95,2,2,0,0,1,1.85,1h0V2.85h1.46V8.4H23.45V7.62h0a2,2,0,0,1-1.85,1A2.68,2.68,0,0,1,18.91,5.62Zm4.54,0a1.5,1.5,0,1,0-3,0,1.5,1.5,0,1,0,3,0Z"/><path d="M31.56,2.85,29.29,8.4H27.85L25.6,2.85h1.66l1.31,3.84,1.31-3.84Z"/><path d="M33.87,1.69H32.2V.07h1.67ZM32.29,2.85h1.48V8.4H32.29Z"/><path d="M40.9,5.62a3.07,3.07,0,0,1-6.14,0,3.07,3.07,0,0,1,6.14,0Zm-4.63,0a1.56,1.56,0,1,0,3.11,0,1.56,1.56,0,0,0-3.11,0Z"/><path d="M43.35,8.4H41.88V0h1.47Z"/><path d="M49.92,5.64v.28H45.78a1.45,1.45,0,0,0,1.56,1.35A2.34,2.34,0,0,0,49,6.51l.75,1.07a3.4,3.4,0,0,1-2.4,1,2.8,2.8,0,0,1-3-2.94,2.76,2.76,0,0,1,2.88-3C48.91,2.67,49.92,3.74,49.92,5.64ZM45.81,5h2.62a1.16,1.16,0,0,0-1.27-1.12A1.24,1.24,0,0,0,45.81,5Z"/><path d="M52.86,4.09V6.42c0,.44.15.62.59.62h.25V8.41h-.65a1.49,1.49,0,0,1-1.67-1.65V4.09h-1V2.85h1V.64h1.48V2.85H54V4.09Z"/></svg>
